<svg width="24" height="25" viewBox="0 0 24 25" fill="none" xmlns="http://www.w3.org/2000/svg">
<path d="M21 20.5C21 18.41 19.33 15.432 17 14.773M15 20.5C15 17.849 12.314 14.5 9 14.5C5.686 14.5 3 17.849 3 20.5" stroke="#68E1EA" stroke-width="1.5" stroke-linecap="round" stroke-linejoin="round"/>
<path d="M9 11C10.6569 11 12 9.65685 12 8C12 6.34315 10.6569 5 9 5C7.34315 5 6 6.34315 6 8C6 9.65685 7.34315 11 9 11Z" stroke="#68E1EA" stroke-width="1.5" stroke-linecap="round" stroke-linejoin="round"/>
<path d="M15 11C15.7956 11 16.5587 10.6839 17.1213 10.1213C17.6839 9.55871 18 8.79565 18 8C18 7.20435 17.6839 6.44129 17.1213 5.87868C16.5587 5.31607 15.7956 5 15 5" stroke="#68E1EA" stroke-width="1.5" stroke-linecap="round" stroke-linejoin="round"/>
</svg>
