<svg width="24" height="25" viewBox="0 0 24 25" fill="none" xmlns="http://www.w3.org/2000/svg">
<path d="M4 8.75C4 5.922 4 4.507 4.879 3.629C5.757 2.75 7.172 2.75 10 2.75H14C16.828 2.75 18.243 2.75 19.121 3.629C20 4.507 20 5.922 20 8.75V16.75C20 19.578 20 20.993 19.121 21.871C18.243 22.75 16.828 22.75 14 22.75H10C7.172 22.75 5.757 22.75 4.879 21.871C4 20.993 4 19.578 4 16.75V8.75Z" stroke="#68E1EA" stroke-width="1.5"/>
<path d="M19.898 16.75H7.898C6.968 16.75 6.503 16.75 6.121 16.852C5.61231 16.9884 5.14849 17.2563 4.77618 17.6288C4.40386 18.0013 4.13616 18.4652 4 18.974" stroke="#68E1EA" stroke-width="1.5"/>
<path d="M8 7.75H16M8 11.25H13" stroke="#68E1EA" stroke-width="1.5" stroke-linecap="round"/>
</svg>
