<svg width="16" height="21" viewBox="0 0 16 21" fill="none" xmlns="http://www.w3.org/2000/svg">
<path d="M16 10.75C16 10.4848 15.8946 10.2304 15.7071 10.0429C15.5196 9.85536 15.2652 9.75 15 9.75H7.41L9.71 7.46C9.80324 7.36676 9.8772 7.25607 9.92766 7.13425C9.97812 7.01243 10.0041 6.88186 10.0041 6.75C10.0041 6.61814 9.97812 6.48757 9.92766 6.36575C9.8772 6.24393 9.80324 6.13324 9.71 6.04C9.61676 5.94676 9.50607 5.8728 9.38425 5.82234C9.26243 5.77188 9.13186 5.74591 9 5.74591C8.86814 5.74591 8.73757 5.77188 8.61575 5.82234C8.49393 5.8728 8.38324 5.94676 8.29 6.04L4.29 10.04C4.19896 10.1351 4.12759 10.2472 4.08 10.37C3.97998 10.6135 3.97998 10.8865 4.08 11.13C4.12759 11.2528 4.19896 11.3649 4.29 11.46L8.29 15.46C8.38296 15.5537 8.49356 15.6281 8.61542 15.6789C8.73728 15.7297 8.86799 15.7558 9 15.7558C9.13201 15.7558 9.26272 15.7297 9.38458 15.6789C9.50644 15.6281 9.61704 15.5537 9.71 15.46C9.80373 15.367 9.87812 15.2564 9.92889 15.1346C9.97966 15.0127 10.0058 14.882 10.0058 14.75C10.0058 14.618 9.97966 14.4873 9.92889 14.3654C9.87812 14.2436 9.80373 14.133 9.71 14.04L7.41 11.75H15C15.2652 11.75 15.5196 11.6446 15.7071 11.4571C15.8946 11.2696 16 11.0152 16 10.75ZM13 0.75H3C2.20435 0.75 1.44129 1.06607 0.87868 1.62868C0.316071 2.19129 0 2.95435 0 3.75V17.75C0 18.5456 0.316071 19.3087 0.87868 19.8713C1.44129 20.4339 2.20435 20.75 3 20.75H13C13.7956 20.75 14.5587 20.4339 15.1213 19.8713C15.6839 19.3087 16 18.5456 16 17.75V14.75C16 14.4848 15.8946 14.2304 15.7071 14.0429C15.5196 13.8554 15.2652 13.75 15 13.75C14.7348 13.75 14.4804 13.8554 14.2929 14.0429C14.1054 14.2304 14 14.4848 14 14.75V17.75C14 18.0152 13.8946 18.2696 13.7071 18.4571C13.5196 18.6446 13.2652 18.75 13 18.75H3C2.73478 18.75 2.48043 18.6446 2.29289 18.4571C2.10536 18.2696 2 18.0152 2 17.75V3.75C2 3.48478 2.10536 3.23043 2.29289 3.04289C2.48043 2.85536 2.73478 2.75 3 2.75H13C13.2652 2.75 13.5196 2.85536 13.7071 3.04289C13.8946 3.23043 14 3.48478 14 3.75V6.75C14 7.01522 14.1054 7.26957 14.2929 7.45711C14.4804 7.64464 14.7348 7.75 15 7.75C15.2652 7.75 15.5196 7.64464 15.7071 7.45711C15.8946 7.26957 16 7.01522 16 6.75V3.75C16 2.95435 15.6839 2.19129 15.1213 1.62868C14.5587 1.06607 13.7956 0.75 13 0.75Z" fill="white"/>
</svg>
